<svg width="24" height="24" viewBox="0 0 24 24" fill="none" xmlns="http://www.w3.org/2000/svg">
<mask id="mask0_894_2700" style="mask-type:alpha" maskUnits="userSpaceOnUse" x="0" y="0" width="24" height="24">
<rect width="24" height="24" fill="#D9D9D9"/>
</mask>
<g mask="url(#mask0_894_2700)">
<path d="M1.71154 16.3355L5.37114 10.4682C5.53525 10.2106 5.76699 10.0708 6.06634 10.049C6.36569 10.0272 6.61921 10.1285 6.82691 10.3529L9.02884 12.924L12.2615 7.66249C12.4321 7.37788 12.6856 7.23396 13.0221 7.23074C13.3586 7.22754 13.6173 7.36313 13.7981 7.63749L15.398 10.0471C15.1109 10.0702 14.8413 10.1096 14.5894 10.1653C14.3375 10.2211 14.0865 10.2964 13.8365 10.3913L13.0654 9.23934L9.90384 14.3932C9.73972 14.6509 9.50542 14.7932 9.20094 14.8201C8.89645 14.8471 8.64037 14.7432 8.43269 14.5086L6.22114 11.9278L2.98844 17.1413C2.8769 17.3272 2.71216 17.4429 2.49421 17.4884C2.27626 17.5339 2.07947 17.4874 1.90384 17.349C1.73845 17.2374 1.63974 17.0846 1.60769 16.8903C1.57564 16.6961 1.61025 16.5112 1.71154 16.3355ZM21.575 22.6451L18.2961 19.3855C17.982 19.6124 17.6352 19.7842 17.2558 19.9009C16.8763 20.0176 16.4827 20.0759 16.075 20.0759C14.9596 20.0759 14.0141 19.6881 13.2385 18.9124C12.4628 18.1368 12.075 17.1913 12.075 16.0759C12.075 14.9606 12.4628 14.015 13.2385 13.2394C14.0141 12.4638 14.9596 12.0759 16.075 12.0759C17.1904 12.0759 18.1359 12.4638 18.9115 13.2394C19.6871 14.015 20.075 14.9606 20.075 16.0759C20.075 16.49 20.015 16.8884 19.8951 17.2711C19.7753 17.6538 19.5987 18.0073 19.3653 18.3317L22.6442 21.5759L21.575 22.6451ZM16.075 18.5759C16.775 18.5759 17.3667 18.3343 17.85 17.8509C18.3333 17.3676 18.575 16.7759 18.575 16.0759C18.575 15.3759 18.3333 14.7843 17.85 14.3009C17.3667 13.8176 16.775 13.5759 16.075 13.5759C15.375 13.5759 14.7833 13.8176 14.3 14.3009C13.8167 14.7843 13.575 15.3759 13.575 16.0759C13.575 16.7759 13.8167 17.3676 14.3 17.8509C14.7833 18.3343 15.375 18.5759 16.075 18.5759ZM18.1077 10.4028C17.8679 10.308 17.6221 10.2301 17.3702 10.1692C17.1183 10.1083 16.8571 10.0695 16.5866 10.0528L21.0115 3.03554C21.1231 2.85991 21.2852 2.74677 21.4981 2.69612C21.7109 2.64548 21.9051 2.6894 22.0807 2.82787C22.2461 2.9394 22.3474 3.09228 22.3846 3.28649C22.4218 3.48073 22.3897 3.66566 22.2884 3.84129L18.1077 10.4028Z" fill="white"/>
</g>
</svg>
