<svg width="24" height="24" viewBox="0 0 24 24" fill="none" xmlns="http://www.w3.org/2000/svg">
<mask id="mask0_894_2720" style="mask-type:alpha" maskUnits="userSpaceOnUse" x="0" y="0" width="24" height="24">
<rect width="24" height="24" fill="#D9D9D9"/>
</mask>
<g mask="url(#mask0_894_2720)">
<path d="M10.8074 21.3084C10.5948 21.3084 10.4167 21.2365 10.2731 21.0928C10.1295 20.949 10.0577 20.7709 10.0577 20.5584V15.4622C10.0577 15.3584 10.0644 15.2545 10.0779 15.1507C10.0914 15.0469 10.1148 14.9481 10.1481 14.8545L11.1692 11.9661C11.2898 11.606 11.5082 11.3134 11.8245 11.0883C12.1409 10.8632 12.4949 10.7507 12.8865 10.7507H18.6134C19.0051 10.7507 19.3591 10.8632 19.6755 11.0883C19.9918 11.3134 20.2102 11.606 20.3307 11.9661L21.3519 14.8545C21.3852 14.9481 21.4086 15.0469 21.4221 15.1507C21.4356 15.2545 21.4423 15.3584 21.4423 15.4622V20.5584C21.4423 20.7709 21.3704 20.949 21.2266 21.0928C21.0828 21.2365 20.9045 21.3084 20.692 21.3084C20.4794 21.3084 20.3013 21.2365 20.1577 21.0928C20.0141 20.949 19.9423 20.7709 19.9423 20.5584V19.7122H11.5577V20.5584C11.5577 20.7709 11.4858 20.949 11.342 21.0928C11.1981 21.2365 11.0199 21.3084 10.8074 21.3084ZM11.6731 14.1738H19.8269L19.1173 12.1546C19.0981 12.0904 19.0628 12.0392 19.0115 12.0007C18.9603 11.9622 18.8993 11.943 18.8288 11.943H12.6712C12.6006 11.943 12.5397 11.9622 12.4885 12.0007C12.4372 12.0392 12.4019 12.0904 12.3827 12.1546L11.6731 14.1738ZM12.7885 17.8468C13.0554 17.8468 13.2792 17.7565 13.4598 17.5759C13.6405 17.3953 13.7308 17.1715 13.7308 16.9045C13.7308 16.6375 13.6405 16.4137 13.4598 16.2331C13.2792 16.0525 13.0554 15.9622 12.7885 15.9622C12.5215 15.9622 12.2977 16.0525 12.1171 16.2331C11.9365 16.4137 11.8462 16.6375 11.8462 16.9045C11.8462 17.1715 11.9365 17.3953 12.1171 17.5759C12.2977 17.7565 12.5215 17.8468 12.7885 17.8468ZM18.7115 17.8468C18.9785 17.8468 19.2023 17.7565 19.3829 17.5759C19.5635 17.3953 19.6538 17.1715 19.6538 16.9045C19.6538 16.6375 19.5635 16.4137 19.3829 16.2331C19.2023 16.0525 18.9785 15.9622 18.7115 15.9622C18.4446 15.9622 18.2208 16.0525 18.0401 16.2331C17.8595 16.4137 17.7692 16.6375 17.7692 16.9045C17.7692 17.1715 17.8595 17.3953 18.0401 17.5759C18.2208 17.7565 18.4446 17.8468 18.7115 17.8468ZM6.17311 13.3084V11.5392H7.94231V13.3084H6.17311ZM10.6731 7.8084V6.0392H12.4423V7.8084H10.6731ZM6.17311 17.3084V15.5392H7.94231V17.3084H6.17311ZM6.17311 21.3084V19.5392H7.94231V21.3084H6.17311ZM2.55774 21.3084V9.443C2.55774 9.02122 2.7055 8.66257 3.00101 8.36705C3.29651 8.07155 3.65516 7.9238 4.07694 7.9238H7.05772V3.94303C7.05772 3.52125 7.20546 3.1626 7.50096 2.8671C7.79648 2.57159 8.15513 2.42383 8.57691 2.42383H14.5384C14.9602 2.42383 15.3189 2.57159 15.6144 2.8671C15.9099 3.1626 16.0576 3.52125 16.0576 3.94303V8.63533H14.5577V3.9238H8.55766V9.42375H4.05771V21.3084H2.55774ZM11.25 18.5199H20.25V15.3661H11.25V18.5199Z" fill="white"/>
</g>
</svg>
