<svg width="24" height="24" viewBox="0 0 24 24" fill="none" xmlns="http://www.w3.org/2000/svg">
<mask id="mask0_894_2705" style="mask-type:alpha" maskUnits="userSpaceOnUse" x="0" y="0" width="24" height="24">
<rect width="24" height="24" fill="#D9D9D9"/>
</mask>
<g mask="url(#mask0_894_2705)">
<path d="M4.50014 18.6933V11.2414L3.23089 12.2279C3.05526 12.3561 2.86937 12.4068 2.67322 12.3798C2.47707 12.3529 2.3149 12.2516 2.18672 12.076C2.0585 11.9004 2.00625 11.7145 2.02997 11.5183C2.05368 11.3222 2.14823 11.16 2.31362 11.0318L4.50014 9.35103V7.23179C4.50014 7.01899 4.57194 6.84079 4.71554 6.69719C4.85913 6.5536 5.03733 6.48181 5.25014 6.48181C5.46296 6.48181 5.64116 6.5536 5.78474 6.69719C5.92833 6.84079 6.00012 7.01899 6.00012 7.23179V8.20106L10.9001 4.46451C11.2347 4.21323 11.603 4.08759 12.0049 4.08759C12.4068 4.08759 12.7719 4.21323 13.1001 4.46451L21.6866 11.0318C21.852 11.16 21.9466 11.3222 21.9703 11.5183C21.994 11.7145 21.9417 11.9004 21.8135 12.076C21.6853 12.2414 21.5232 12.3375 21.327 12.3645C21.1309 12.3914 20.9501 12.3407 20.7847 12.2125L19.5001 11.2414V18.6933C19.5001 19.192 19.3235 19.618 18.9703 19.9712C18.6171 20.3244 18.1911 20.501 17.6924 20.501H6.30784C5.80913 20.501 5.38317 20.3244 5.02997 19.9712C4.67675 19.618 4.50014 19.192 4.50014 18.6933ZM6.30784 19.001H10.8078V15.8087C10.8078 15.4741 10.9229 15.1917 11.153 14.9616C11.3831 14.7314 11.6655 14.6164 12.0001 14.6164C12.3347 14.6164 12.6171 14.7314 12.8472 14.9616C13.0774 15.1917 13.1924 15.4741 13.1924 15.8087V19.001H17.6924C17.7821 19.001 17.8559 18.9722 17.9136 18.9145C17.9713 18.8568 18.0001 18.783 18.0001 18.6933V10.101L12.1828 5.67026C12.1315 5.62538 12.0706 5.60294 12.0001 5.60294C11.9296 5.60294 11.8687 5.62538 11.8174 5.67026L6.00012 10.101V18.6933C6.00012 18.783 6.02897 18.8568 6.08667 18.9145C6.14437 18.9722 6.21809 19.001 6.30784 19.001ZM6.30784 19.001H18.0001H6.00012H6.30784ZM5.42512 5.38566C5.15718 5.38566 4.94629 5.2754 4.79244 5.05489C4.63861 4.83439 4.6213 4.60555 4.74052 4.36839C4.94052 3.88505 5.25526 3.50108 5.68474 3.21646C6.11423 2.93184 6.59115 2.78954 7.11552 2.78954C7.34372 2.78954 7.55718 2.72768 7.75589 2.60396C7.95463 2.48023 8.08924 2.31259 8.15974 2.10106C8.21744 1.97669 8.3027 1.87765 8.41552 1.80394C8.52833 1.73022 8.65718 1.69336 8.80204 1.69336C9.07639 1.69336 9.28953 1.80522 9.44144 2.02894C9.59338 2.25265 9.60973 2.4863 9.49049 2.72989C9.28409 3.2068 8.96775 3.58597 8.54147 3.86739C8.11518 4.14879 7.63987 4.28949 7.11552 4.28949C6.8873 4.28949 6.67383 4.34398 6.47512 4.45296C6.2764 4.56193 6.14178 4.72731 6.07127 4.94911C6.00717 5.07988 5.92128 5.18533 5.81359 5.26546C5.70589 5.34559 5.5764 5.38566 5.42512 5.38566Z" fill="white"/>
</g>
</svg>
