<svg width="76" height="75" viewBox="0 0 76 75" fill="none" xmlns="http://www.w3.org/2000/svg">
<mask id="mask0_894_2692" style="mask-type:alpha" maskUnits="userSpaceOnUse" x="0" y="0" width="76" height="75">
<rect x="0.5" width="75" height="75" fill="#D9D9D9"/>
</mask>
<g mask="url(#mask0_894_2692)">
<path d="M14.5629 58.4138V35.1266L10.5965 38.2095C10.0477 38.6102 9.46677 38.7685 8.8538 38.6843C8.24084 38.6002 7.73406 38.2837 7.33349 37.7348C6.93281 37.1859 6.76953 36.605 6.84365 35.9921C6.91776 35.3791 7.21323 34.8723 7.73005 34.4716L14.5629 29.2193V22.5966C14.5629 21.9316 14.7873 21.3748 15.2361 20.926C15.6848 20.4773 16.2416 20.253 16.9067 20.253C17.5717 20.253 18.1286 20.4773 18.5773 20.926C19.026 21.3748 19.2504 21.9316 19.2504 22.5966V25.6256L34.5629 13.9489C35.6085 13.1636 36.7594 12.771 38.0154 12.771C39.2714 12.771 40.4122 13.1636 41.4379 13.9489L68.2707 34.4716C68.7875 34.8723 69.083 35.3791 69.1571 35.9921C69.2312 36.605 69.0679 37.1859 68.6673 37.7348C68.2667 38.2516 67.7599 38.5521 67.1469 38.6363C66.534 38.7204 65.9691 38.5621 65.4522 38.1615L61.4378 35.1266V58.4138C61.4378 59.9723 60.8859 61.3034 59.7821 62.4072C58.6783 63.511 57.3472 64.0629 55.7887 64.0629H20.212C18.6535 64.0629 17.3224 63.511 16.2186 62.4072C15.1148 61.3034 14.5629 59.9723 14.5629 58.4138ZM20.212 59.3755H34.2743V49.3995C34.2743 48.3538 34.6339 47.4714 35.3531 46.7522C36.0723 46.033 36.9547 45.6734 38.0004 45.6734C39.046 45.6734 39.9285 46.033 40.6476 46.7522C41.3668 47.4714 41.7264 48.3538 41.7264 49.3995V59.3755H55.7887C56.0692 59.3755 56.2996 59.2853 56.4799 59.105C56.6602 58.9247 56.7504 58.6943 56.7504 58.4138V31.563L38.5713 17.7169C38.411 17.5766 38.2207 17.5065 38.0004 17.5065C37.78 17.5065 37.5897 17.5766 37.4294 17.7169L19.2504 31.563V58.4138C19.2504 58.6943 19.3405 58.9247 19.5208 59.105C19.7011 59.2853 19.9315 59.3755 20.212 59.3755ZM20.212 59.3755H56.7504H19.2504H20.212ZM17.4535 16.8275C16.6162 16.8275 15.9572 16.4829 15.4764 15.7938C14.9957 15.1048 14.9416 14.3897 15.3141 13.6485C15.9391 12.1381 16.9227 10.9382 18.2648 10.0488C19.607 9.15932 21.0973 8.71461 22.736 8.71461C23.4491 8.71461 24.1162 8.5213 24.7372 8.13469C25.3582 7.74802 25.7789 7.22417 25.9992 6.56313C26.1795 6.17448 26.4459 5.86498 26.7985 5.63461C27.151 5.40425 27.5537 5.28906 28.0064 5.28906C28.8637 5.28906 29.5298 5.63862 30.0045 6.33774C30.4793 7.03685 30.5304 7.76701 30.1578 8.52821C29.5128 10.0186 28.5242 11.2035 27.1921 12.0829C25.8599 12.9623 24.3746 13.402 22.736 13.402C22.0228 13.402 21.3557 13.5722 20.7347 13.9128C20.1138 14.2533 19.6931 14.7702 19.4727 15.4633C19.2724 15.8719 19.004 16.2015 18.6675 16.4519C18.3309 16.7023 17.9263 16.8275 17.4535 16.8275Z" fill="white"/>
</g>
</svg>
