<svg width="24" height="24" viewBox="0 0 24 24" fill="none" xmlns="http://www.w3.org/2000/svg">
<mask id="mask0_894_1304" style="mask-type:alpha" maskUnits="userSpaceOnUse" x="0" y="0" width="24" height="24">
<rect width="24" height="24" fill="#D9D9D9"/>
</mask>
<g mask="url(#mask0_894_1304)">
<path d="M4.3077 20.5008C3.81058 20.5008 3.38503 20.3238 3.03102 19.9698C2.67701 19.6158 2.5 19.1903 2.5 18.6931V10.1547C2.5 9.8685 2.56402 9.59735 2.69207 9.34127C2.82012 9.08519 2.99712 8.87429 3.22307 8.70859L8.91538 4.42014C9.08136 4.29963 9.25489 4.20924 9.43598 4.14899C9.61706 4.08873 9.80569 4.05859 10.0019 4.05859C10.198 4.05859 10.3862 4.08873 10.5665 4.14899C10.7467 4.20924 10.9194 4.29963 11.0846 4.42014L13.6365 6.34512C13.8391 6.50025 13.9429 6.67845 13.948 6.87972C13.9532 7.081 13.8996 7.25931 13.7872 7.41464C13.6749 7.56998 13.522 7.67029 13.3286 7.71559C13.1352 7.76089 12.932 7.70598 12.7192 7.55087L10.1827 5.62587C10.1314 5.581 10.0705 5.55857 9.99998 5.55857C9.92946 5.55857 9.86856 5.581 9.81728 5.62587L4.12498 9.90472C4.08653 9.93677 4.05607 9.97363 4.03363 10.0153C4.01119 10.057 3.99998 10.1034 3.99998 10.1547V18.6931C3.99998 18.7829 4.02883 18.8566 4.08653 18.9143C4.14423 18.972 4.21795 19.0009 4.3077 19.0009H7.3077C7.52018 19.0009 7.6983 19.0728 7.84205 19.2166C7.9858 19.3604 8.05768 19.5386 8.05768 19.7512C8.05768 19.9638 7.9858 20.1419 7.84205 20.2854C7.6983 20.429 7.52018 20.5008 7.3077 20.5008H4.3077ZM16 16.097C16.8743 16.097 17.7227 16.2089 18.5452 16.4326C19.3676 16.6563 20.1525 16.99 20.9 17.4336C21.1551 17.5913 21.3605 17.7986 21.5163 18.0557C21.6721 18.3127 21.75 18.5906 21.75 18.8893V19.0624C21.75 19.4611 21.6131 19.8005 21.3394 20.0806C21.0657 20.3608 20.7231 20.5008 20.3115 20.5008H11.6884C11.2897 20.5008 10.9503 20.3608 10.6702 20.0806C10.3901 19.8005 10.25 19.4611 10.25 19.0624V18.8893C10.25 18.5906 10.3279 18.3127 10.4837 18.0557C10.6394 17.7986 10.8449 17.5913 11.1 17.4336C11.8474 16.99 12.6324 16.6563 13.4548 16.4326C14.2772 16.2089 15.1256 16.097 16 16.097ZM11.8423 19.0009H20.1577V18.7316C19.5231 18.3662 18.8567 18.0858 18.1587 17.8903C17.4606 17.6948 16.741 17.597 16 17.597C15.2589 17.597 14.5394 17.6948 13.8413 17.8903C13.1432 18.0858 12.4769 18.3662 11.8423 18.7316V19.0009ZM16.0011 14.5489C15.2375 14.5489 14.5881 14.2817 14.0529 13.7472C13.5176 13.2127 13.25 12.5636 13.25 11.8001C13.25 11.0365 13.5173 10.3871 14.0518 9.85182C14.5863 9.31657 15.2353 9.04894 15.9989 9.04894C16.7624 9.04894 17.4118 9.31619 17.9471 9.85069C18.4823 10.3852 18.75 11.0342 18.75 11.7978C18.75 12.5614 18.4827 13.2108 17.9482 13.746C17.4137 14.2813 16.7647 14.5489 16.0011 14.5489ZM16 13.0489C16.3474 13.0489 16.6426 12.9275 16.8856 12.6845C17.1285 12.4416 17.25 12.1464 17.25 11.7989C17.25 11.4515 17.1285 11.1563 16.8856 10.9133C16.6426 10.6704 16.3474 10.5489 16 10.5489C15.6525 10.5489 15.3573 10.6704 15.1144 10.9133C14.8714 11.1563 14.75 11.4515 14.75 11.7989C14.75 12.1464 14.8714 12.4416 15.1144 12.6845C15.3573 12.9275 15.6525 13.0489 16 13.0489Z" fill="white"/>
</g>
</svg>
