<svg width="24" height="24" viewBox="0 0 24 24" fill="none" xmlns="http://www.w3.org/2000/svg">
<mask id="mask0_894_2725" style="mask-type:alpha" maskUnits="userSpaceOnUse" x="0" y="0" width="24" height="24">
<rect width="24" height="24" fill="#D9D9D9"/>
</mask>
<g mask="url(#mask0_894_2725)">
<path d="M11.2828 14.7507H12.7172C12.8529 14.7507 12.9705 14.6942 13.07 14.5812C13.1695 14.4682 13.2026 14.3439 13.1693 14.2084L12.6943 11.5929C13.0083 11.4583 13.2611 11.2466 13.4528 10.9579C13.6444 10.6693 13.7402 10.3502 13.7402 10.0007C13.7402 9.52201 13.5698 9.11226 13.2288 8.77142C12.8878 8.43076 12.4778 8.26042 11.999 8.26042C11.5202 8.26042 11.1106 8.43076 10.7702 8.77142C10.4299 9.11226 10.2598 9.52201 10.2598 10.0007C10.2598 10.3502 10.3556 10.6693 10.5473 10.9579C10.7389 11.2466 10.9918 11.4583 11.3058 11.5929L10.8308 14.2084C10.7974 14.3439 10.8305 14.4682 10.93 14.5812C11.0295 14.6942 11.1471 14.7507 11.2828 14.7507ZM12 21.3717C11.8962 21.3717 11.7942 21.3633 11.6942 21.3467C11.5942 21.33 11.4974 21.305 11.4037 21.2717C9.29492 20.5217 7.61708 19.1919 6.37025 17.2824C5.12342 15.3728 4.5 13.3122 4.5 11.1007V6.59692C4.5 6.21709 4.60925 5.87517 4.82775 5.57117C5.04608 5.26734 5.3285 5.04709 5.675 4.91042L11.3672 2.78542C11.5814 2.70842 11.7923 2.66992 12 2.66992C12.2077 2.66992 12.4186 2.70842 12.6328 2.78542L18.325 4.91042C18.6715 5.04709 18.9539 5.26734 19.1723 5.57117C19.3908 5.87517 19.5 6.21709 19.5 6.59692V11.1007C19.5 13.3122 18.8766 15.3728 17.6298 17.2824C16.3829 19.1919 14.7051 20.5217 12.5963 21.2717C12.5026 21.305 12.4058 21.33 12.3058 21.3467C12.2058 21.3633 12.1038 21.3717 12 21.3717ZM12 19.9007C13.7333 19.3507 15.1667 18.2507 16.3 16.6007C17.4333 14.9507 18 13.1173 18 11.1007V6.58717C18 6.52317 17.9823 6.4655 17.947 6.41417C17.9118 6.36284 17.8622 6.32434 17.798 6.29867L12.1058 4.17367C12.0738 4.16084 12.0385 4.15442 12 4.15442C11.9615 4.15442 11.9262 4.16084 11.8942 4.17367L6.202 6.29867C6.13783 6.32434 6.08817 6.36284 6.053 6.41417C6.01767 6.4655 6 6.52317 6 6.58717V11.1007C6 13.1173 6.56667 14.9507 7.7 16.6007C8.83333 18.2507 10.2667 19.3507 12 19.9007Z" fill="white"/>
</g>
</svg>
