<svg width="24" height="24" viewBox="0 0 24 24" fill="none" xmlns="http://www.w3.org/2000/svg">
<mask id="mask0_894_2715" style="mask-type:alpha" maskUnits="userSpaceOnUse" x="0" y="0" width="24" height="24">
<rect width="24" height="24" fill="#D9D9D9"/>
</mask>
<g mask="url(#mask0_894_2715)">
<path d="M6.15386 17.7115H11.8462V17.4154C11.8462 17.1603 11.7754 16.9239 11.634 16.7064C11.4926 16.4888 11.2954 16.32 11.0423 16.2C10.7153 16.0564 10.3842 15.9487 10.049 15.8769C9.71376 15.8051 9.36411 15.7692 9.00001 15.7692C8.63591 15.7692 8.28626 15.8051 7.95106 15.8769C7.61586 15.9487 7.28474 16.0564 6.95771 16.2C6.70464 16.32 6.5074 16.4888 6.36598 16.7064C6.22456 16.9239 6.15386 17.1603 6.15386 17.4154V17.7115ZM14.5962 16.1923H17.4039C17.5761 16.1923 17.7185 16.136 17.8311 16.0235C17.9437 15.911 18 15.7687 18 15.5966C18 15.4245 17.9437 15.282 17.8311 15.1692C17.7185 15.0564 17.5761 15 17.4039 15H14.5962C14.4239 15 14.2815 15.0562 14.1689 15.1688C14.0563 15.2813 14 15.4236 14 15.5957C14 15.7678 14.0563 15.9102 14.1689 16.023C14.2815 16.1358 14.4239 16.1923 14.5962 16.1923ZM8.99773 15C9.37103 15 9.6891 14.8693 9.95193 14.608C10.2147 14.3467 10.3462 14.0294 10.3462 13.6561C10.3462 13.2828 10.2155 12.9647 9.95418 12.7019C9.69286 12.4391 9.37556 12.3077 9.00228 12.3077C8.62898 12.3077 8.31091 12.4384 8.04808 12.6997C7.78526 12.961 7.65386 13.2783 7.65386 13.6516C7.65386 14.0249 7.78451 14.3429 8.04583 14.6058C8.30715 14.8686 8.62445 15 8.99773 15ZM14.5962 13.5H17.4039C17.5761 13.5 17.7185 13.4437 17.8311 13.3312C17.9437 13.2187 18 13.0764 18 12.9043C18 12.7322 17.9437 12.5897 17.8311 12.4769C17.7185 12.3641 17.5761 12.3077 17.4039 12.3077H14.5962C14.4239 12.3077 14.2815 12.364 14.1689 12.4765C14.0563 12.589 14 12.7313 14 12.9034C14 13.0755 14.0563 13.2179 14.1689 13.3308C14.2815 13.4436 14.4239 13.5 14.5962 13.5ZM4.30773 21.5C3.8026 21.5 3.37503 21.325 3.02503 20.975C2.67503 20.625 2.50003 20.1974 2.50003 19.6923V9.3077C2.50003 8.80257 2.67503 8.375 3.02503 8.025C3.37503 7.675 3.8026 7.5 4.30773 7.5H9.50003V3.99998C9.50003 3.58749 9.64691 3.23438 9.94066 2.94063C10.2344 2.64688 10.5875 2.5 11 2.5H13C13.4125 2.5 13.7656 2.64688 14.0594 2.94063C14.3531 3.23438 14.5 3.58749 14.5 3.99998V7.5H19.6923C20.1974 7.5 20.625 7.675 20.975 8.025C21.325 8.375 21.5 8.80257 21.5 9.3077V19.6923C21.5 20.1974 21.325 20.625 20.975 20.975C20.625 21.325 20.1974 21.5 19.6923 21.5H4.30773ZM4.30773 20H19.6923C19.782 20 19.8558 19.9711 19.9135 19.9134C19.9712 19.8557 20 19.782 20 19.6923V9.3077C20 9.21795 19.9712 9.14423 19.9135 9.08653C19.8558 9.02883 19.782 8.99998 19.6923 8.99998H14.5V9.38463C14.5 9.79359 14.3522 10.1458 14.0567 10.4413C13.7612 10.7368 13.409 10.8846 13 10.8846H11C10.591 10.8846 10.2388 10.7368 9.94331 10.4413C9.64779 10.1458 9.50003 9.79359 9.50003 9.38463V8.99998H4.30773C4.21798 8.99998 4.14426 9.02883 4.08656 9.08653C4.02886 9.14423 4.00001 9.21795 4.00001 9.3077V19.6923C4.00001 19.782 4.02886 19.8557 4.08656 19.9134C4.14426 19.9711 4.21798 20 4.30773 20ZM11 9.38463H13V3.99998H11V9.38463Z" fill="white"/>
</g>
</svg>
